<?xml version="1.0" encoding="UTF-8" standalone="no"?>
<!-- Generator: Adobe Illustrator 24.0.1, SVG Export Plug-In . SVG Version: 6.00 Build 0)  -->

<svg
   version="1.1"
   id="Layer_1"
   x="0px"
   y="0px"
   width="1000px"
   height="1000px"
   viewBox="0 0 1000 1000"
   style="enable-background:new 0 0 1000 1000;"
   xml:space="preserve"
   sodipodi:docname="小小兵.svg"
   inkscape:version="1.2.1 (9c6d41e410, 2022-07-14)"
   xmlns:inkscape="http://www.inkscape.org/namespaces/inkscape"
   xmlns:sodipodi="http://sodipodi.sourceforge.net/DTD/sodipodi-0.dtd"
   xmlns="http://www.w3.org/2000/svg"
   xmlns:svg="http://www.w3.org/2000/svg"><defs
   id="defs993" /><sodipodi:namedview
   id="namedview991"
   pagecolor="#ffffff"
   bordercolor="#000000"
   borderopacity="0.25"
   inkscape:showpageshadow="2"
   inkscape:pageopacity="0.0"
   inkscape:pagecheckerboard="0"
   inkscape:deskcolor="#d1d1d1"
   showgrid="false"
   inkscape:zoom="0.814"
   inkscape:cx="338.45209"
   inkscape:cy="440.41769"
   inkscape:window-width="1920"
   inkscape:window-height="1001"
   inkscape:window-x="-9"
   inkscape:window-y="-9"
   inkscape:window-maximized="1"
   inkscape:current-layer="illustration" />
<g
   id="illustration"
   style="display:inline;fill:#000000"
   transform="matrix(1.0521749,0,0,1,-14.231531,0)">
	
	
	
	
	
	
	
	
	
	
	
	
	
	
	
	
	
	
	
	
	
	
	
	
	
	
	
	
	
	
	
<path
   style="fill:#ffd42a;stroke-width:2"
   d="m 255.25227,285.85797 7.1892,32.56285 7.57838,34.32563 58.79127,-7.77405 46.3192,-6.12486 9.50145,95.44643 9.60954,96.5322 h 90.70195 90.8525 l 8.30812,-101.54372 7.32814,-89.56622 53.02358,9.07611 43.40008,7.42884 6.64321,-31.26217 8.12438,-38.23236 -56.83918,-13.43683 -58.36256,-13.79697 -54.19116,-0.564 c -17.08902,8.33273 -32.54956,11.37291 -47.0559,11.31193 -19.0393,-0.08 -36.43487,-5.50217 -53.71117,-11.31194 l -46.79032,2.11327 -70.69172,13.4509 z"
   id="path2943"
   sodipodi:nodetypes="ccccccccccccccccccscccc" /><path
   style="fill:#0000ff;stroke-width:2"
   d="m 393.82799,260.58264 26.75866,-0.53069 9.53191,61.83823 7.55683,51.70463 c 13.98778,-2.96868 27.95001,-5.9527 47.27604,-5.71844 11.90176,0.14427 25.83778,1.5091 43.06684,4.84975 l 11.36627,-58.64997 10.05887,-55.2527 31.12309,0.11818 -8.71398,62.25653 -10.82435,61.95214 25.19177,23.45441 -0.78109,42.41936 -0.78038,42.38023 -1.11957,60.80151 -1.05236,57.15117 -1.08524,58.93676 -0.82779,44.95555 -38.50494,10e-6 h -35.333 c -1.69607,-11.03793 -3.60608,-26.79394 -5.84365,-42.3964 -3.66611,-25.56363 -8.21154,-50.71507 -14.13602,-54.02726 -5.77756,3.601 -9.30635,26.61443 -11.29708,50.94316 -1.40897,17.21918 -2.04747,35.09725 -2.16748,47.21785 l -39.96066,-0.44401 -38.22068,-0.42467 -2.13389,-49.50615 -2.24745,-52.1409 -2.38756,-55.39146 -2.59101,-60.11135 -2.01303,-46.70219 -1.65729,-38.44913 22.58572,-29.53517 -6.22567,-54.42443 z"
   id="path3064"
   sodipodi:nodetypes="ccccscccccccccccccccscscccccccccccc" /><path
   style="fill:#0000b1;fill-opacity:1;stroke-width:2"
   d="m 441.04473,417.27427 86.86816,-0.86868 c -2.91695,30.86883 -19.07191,41.97316 -43.43409,41.69672 -28.74705,-0.20163 -41.55137,-12.46311 -43.43407,-40.82804 z"
   id="path3120"
   sodipodi:nodetypes="cccc" /><ellipse
   style="fill:#2b0000;fill-opacity:1;stroke-width:2"
   id="path5408"
   cx="419.67914"
   cy="369.31821"
   rx="8.1388206"
   ry="7.8316956" /><ellipse
   style="fill:#2b0000;fill-opacity:1;stroke-width:2"
   id="path5408-3"
   cx="545.44696"
   cy="367.93613"
   rx="8.1388206"
   ry="7.8316956" /><path
   style="fill:#0000b1;fill-opacity:1;stroke-width:2"
   d="m 386.03927,501.31734 26.44436,-1.32937 c 1.35733,33.62143 -4.23501,35.52095 -24.86056,39.3451 z"
   id="path6264"
   sodipodi:nodetypes="cccc" /><path
   style="fill:#0000b1;fill-opacity:1;stroke-width:2"
   d="m 553.47538,498.4546 30.93041,0.68013 -0.98498,36.22114 c -24.7554,0.18063 -28.8982,-7.09551 -29.94543,-36.90127 z"
   id="path7445"
   sodipodi:nodetypes="cccc" /><ellipse
   style="fill:none;fill-opacity:1;stroke:#525252;stroke-width:10;stroke-dasharray:none;stroke-opacity:1"
   id="path7447"
   cx="461.20642"
   cy="158.45483"
   rx="25.337837"
   ry="24.570024" /><ellipse
   style="fill:#4d4d4d;fill-opacity:0;stroke:#575757;stroke-width:10;stroke-dasharray:none;stroke-opacity:1"
   id="path7447-5"
   cx="513.00781"
   cy="158.39174"
   rx="25.337837"
   ry="24.570024" /><path
   style="fill:#525252;fill-opacity:1;stroke:none;stroke-width:5;stroke-dasharray:none;stroke-opacity:1"
   d="m 539.90982,151.07757 c 1.22712,-0.13857 1.97395,-0.36826 4.01765,0.16287 l -0.10859,15.20193 c -1.77199,0.36039 -1.98813,0.52224 -3.69189,0.21718 z"
   id="path9367-6"
   sodipodi:nodetypes="ccccc" /><path
   style="fill:#525252;fill-opacity:1;stroke:none;stroke-width:5;stroke-dasharray:none;stroke-opacity:1"
   d="m 429.6687,151.93092 c 1.22712,-0.13857 2.19112,-0.58543 4.23482,-0.0543 l 0.59721,15.58198 c -1.77199,0.36039 -2.9111,0.35936 -4.61486,0.0543 z"
   id="path9367"
   sodipodi:nodetypes="ccccc" /><path
   style="fill:#ffffff;fill-opacity:1;stroke:none;stroke-width:9.74891;stroke-dasharray:none;stroke-opacity:1"
   d="m 415.90401,365.01843 1.45949,-1.07494 2.4811,4.45331 3.64871,-3.22481 1.31352,1.38206 -4.23249,3.22482 3.06491,4.45332 -1.45948,1.07494 -2.77301,-4.60688 -3.64869,3.07125 -1.02164,-1.38207 3.6487,-2.91769 z"
   id="path15323"
   sodipodi:nodetypes="ccccccccccccc" /><path
   style="fill:#ffffff;fill-opacity:1;stroke:none;stroke-width:9.74891;stroke-dasharray:none;stroke-opacity:1"
   d="m 541.94305,363.39659 1.45949,-1.07494 2.4811,4.45331 3.64871,-3.22481 1.31352,1.38206 -4.23249,3.22482 3.06491,4.45332 -1.45948,1.07494 -2.77301,-4.60688 -3.64869,3.07125 -1.02164,-1.38207 3.6487,-2.91769 z"
   id="path15323-3"
   sodipodi:nodetypes="ccccccccccccc" /><ellipse
   style="fill:#ffffff;fill-opacity:1;stroke:none;stroke-width:11.9479;stroke-dasharray:none;stroke-opacity:1"
   id="path16967"
   cx="484.01047"
   cy="437.7673"
   rx="17.367056"
   ry="18.453091" /><path
   style="fill:#0b0b0b;fill-opacity:1;stroke:none;stroke-width:12.4943;stroke-dasharray:none;stroke-opacity:1"
   d="m 487.72109,432.21052 2.90838,-2e-5 c 0.49755,-1.73039 0.36521,-4.86887 -0.87251,-6.64513 -1.39508,-1.92256 -3.59686,-2.91778 -5.57438,-3.03777 -3.19715,0.0453 -5.11263,0.95931 -6.64082,2.13594 -2.1412,2.37325 -2.6948,4.41425 -2.5206,6.78751 0.0207,2.74661 1.76641,6.02432 5.2351,6.78752 1.74273,0.43964 3.26269,0.55206 4.75034,0.61703 1.93254,0.41036 6.4119,1.1583 5.86524,4.41426 -0.94885,4.91168 -3.49232,4.45925 -4.8473,4.79398 -3.55036,-0.0161 -4.52213,0.1456 -6.73776,-1.23408 -0.96311,-1.02984 -1.04959,-2.32674 -1.4057,-4.46172 l -3.92632,0.23732 c 0.0206,2.43029 1.03667,5.44844 2.56907,6.64512 2.13692,1.36922 4.19678,1.9839 6.20455,2.08846 1.66096,0.19806 2.50653,0.16266 5.76829,-0.52211 3.77892,-1.49032 5.14484,-4.77866 5.52592,-7.49949 -0.10921,-3.5807 -1.81337,-5.36525 -2.95685,-6.123 -1.36763,-0.80918 -4.3947,-1.39219 -5.44456,-1.27317 -1.57806,-0.0848 -2.2795,-0.0319 -4.29852,-0.62544 -1.24702,-0.48398 -2.3435,-1.39263 -2.66601,-3.2751 -0.0582,-1.82025 0.24354,-2.48092 1.16334,-3.74974 0.95125,-0.9985 1.21457,-1.57083 3.97479,-1.66128 2.7225,0.421 3.01659,1.39967 3.58701,2.27832 0.27538,1.0627 0.49379,2.13123 0.3393,3.32259 z"
   id="path16969"
   sodipodi:nodetypes="ccccccccccccccccccccccccc" /><path
   style="fill:#0b0b0b;stroke-width:9.74891"
   d="M 491.35905,96.130221 519.38104,76.781327 Z"
   id="path18574" /><path
   style="fill:#000000;fill-opacity:1;stroke:#000000;stroke-width:2.00785;stroke-dasharray:none;stroke-opacity:1"
   d="m 819.40629,284.76658 c 0.0296,8.50523 -0.0994,15.12625 -0.067,21.12137 0.0415,7.69694 0.34899,14.36222 1.59957,22.65872 0.2709,1.79717 2.98121,1.45907 4.96285,1.81577 9.69257,0.75668 15.77347,1.22399 24.60205,1.34093 6.12252,6.59023 12.30057,9.9511 18.18917,11.40251 11.14852,2.74785 21.25953,-1.3485 27.99198,-3.33233 9.56647,1.05306 20.82267,5.52847 30.00355,6.70097 8.69423,1.11035 15.52733,-0.74134 17.30178,-11.26654 0.44528,-5.02558 -0.0816,-12.21457 -5.81278,-17.55497 -4.87803,-4.54542 -13.52625,-7.75164 -28.55418,-7.14488 11.48859,-3.13957 23.18102,-5.45819 32.52175,-8.83099 12.5718,-4.53949 20.88355,-10.98862 18.70465,-23.91917 -1.99927,-8.32699 -5.31456,-12.68717 -9.6154,-14.56412 -10.31144,-4.50007 -26.28806,5.27398 -43.37563,8.87613 5.67283,-7.317 14.08791,-14.08681 20.5227,-20.73926 8.39742,-8.68145 13.42235,-17.16302 4.57914,-26.39993 -10.46541,-8.27881 -18.45856,-10.78686 -33.04762,2.03275 -9.2138,8.99584 -15.71096,14.28012 -17.65492,18.99022 -7.36422,-2.4049 -19.90864,-2.40574 -27.55706,5.91266 -6.52469,9.03376 -7.49737,15.88089 -9.95859,20.49749 -2.92288,5.48255 -9.80311,4.52214 -21.70676,5.76809 -4.33051,0.45328 -3.8186,2.28556 -3.62922,6.63458 z"
   id="path18951"
   sodipodi:nodetypes="cssccscscscscscsccccssc" /><path
   style="fill:#000000;fill-opacity:1;stroke:#000000;stroke-width:1.93287;stroke-dasharray:none;stroke-opacity:1"
   d="m 154.67795,282.56526 c -0.0284,8.68469 0.0986,15.39654 0.0597,21.48651 -0.0477,7.4745 -0.34505,14.01221 -1.48584,22.11085 -0.25208,1.78955 -2.77437,1.45284 -4.61851,1.80821 -9.01998,0.75343 -14.67907,1.21889 -22.89497,1.33524 -7.38932,8.51115 -14.86557,11.61341 -21.72844,12.1738 -8.447378,0.68978 -15.965431,-2.47157 -21.248157,-4.13739 -8.046799,0.94784 -17.378276,4.67998 -25.407105,6.251 -9.265882,1.81308 -16.796776,0.74778 -18.615691,-10.79751 -0.518307,-6.25898 0.378512,-15.88756 10.394614,-21.07056 4.809224,-2.48861 11.720837,-3.95232 21.587653,-3.52603 -10.239701,-2.99433 -20.65337,-5.23879 -29.151727,-8.37382 -12.317608,-4.54394 -20.611545,-10.95877 -18.520144,-24.23948 3.572075,-15.9206 11.658626,-17.2799 22.083176,-14.53369 8.022831,2.11351 17.430456,6.65871 27.230753,8.86944 -4.970626,-6.86065 -12.203684,-13.23821 -18.03068,-19.48997 -8.437908,-9.05299 -13.927426,-17.84218 -5.329244,-27.45244 9.739188,-8.24421 17.177738,-10.74179 30.754369,2.02426 8.574548,8.95829 14.620731,14.22051 16.429894,18.9109 3.514889,-1.22826 8.297859,-1.82679 13.083839,-1.0009 4.5456,0.7844 9.09392,2.85374 12.56109,6.88888 6.07183,8.99602 6.97712,15.81463 9.26756,20.4119 2.72008,5.45956 9.12279,4.50325 20.2004,5.74406 4.03002,0.45124 3.55365,2.2759 3.37742,6.60674 z"
   id="path18951-9"
   sodipodi:nodetypes="cssccscscscscscscccscssc" /><path
   style="fill:#000000;fill-opacity:1;stroke:none;stroke-width:0.974891;stroke-dasharray:none;stroke-opacity:1"
   d="m 487.37418,89.719679 c 1.61481,-3.3036 3.99606,-7.98973 9.78889,-14.752934 6.36515,-7.431396 15.90744,-13.003085 17.88253,-13.406523 -11.78545,6.372862 -21.87342,18.353127 -27.67142,28.159457 z"
   id="path24055"
   sodipodi:nodetypes="cscc" /><path
   style="fill:#000000;fill-opacity:1;stroke:none;stroke-width:0.974891;stroke-dasharray:none;stroke-opacity:1"
   d="m 487.56441,89.622669 c -1.38885,-5.89738 -1.40143,-13.767754 0.51082,-21.805899 1.68141,-7.067802 3.83164,-10.573656 9.70553,-19.579239 -5.04983,10.497707 -11.71879,19.478949 -10.21635,41.385138 z"
   id="path24057"
   sodipodi:nodetypes="cscc" /><path
   style="fill:#000000;fill-opacity:1;stroke:none;stroke-width:0.974891;stroke-dasharray:none;stroke-opacity:1"
   d="m 487.19954,89.469109 c -3.84771,-5.10061 -7.45701,-10.10602 -9.4866,-15.58661 -2.04999,-6.219007 -2.35945,-7.621046 -4.01358,-19.502461 2.94481,12.754571 3.99921,21.473487 13.50018,35.089071 z"
   id="path24059"
   sodipodi:nodetypes="cccc" /></g>
<g
   id="skeleton_1_"
   style="opacity:0.25"
   sodipodi:insensitive="true">
	<circle
   id="rightShoulder"
   cx="392.79999"
   cy="294.29999"
   r="8.1999998" />
	<circle
   id="rightElbow"
   cx="289.29999"
   cy="294.39999"
   r="8.1999998" />
	
		<circle
   id="rightWrist"
   transform="matrix(0.9951,-0.09853767,0.09853767,0.9951,-29.0274,13.8698)"
   cx="125.9"
   cy="300.79999"
   r="8.1999998" />
	<circle
   id="rightHip"
   cx="443.10001"
   cy="510.10001"
   r="8.1999998" />
	<circle
   id="rightKnee"
   cx="449.5"
   cy="670.29999"
   r="8.1999998" />
	<circle
   id="rightAnkle"
   cx="449.5"
   cy="878.29999"
   r="8.1999998" />
	<circle
   id="leftShoulder"
   cx="605.70001"
   cy="294.29999"
   r="8.1999998" />
	<circle
   id="leftElbow"
   cx="710.09998"
   cy="294"
   r="8.1999998" />
	<circle
   id="leftWrist"
   cx="873.5"
   cy="300.29999"
   r="8.1999998" />
	<circle
   id="leftHip"
   cx="559.5"
   cy="509.29999"
   r="8.1999998" />
	<circle
   id="leftKnee"
   cx="559.5"
   cy="670.29999"
   r="8.1999998" />
	<circle
   id="leftAnkle"
   cx="559.5"
   cy="878.29999"
   r="8.1999998" />
	<polygon
   style="fill:none;stroke:#000000;stroke-miterlimit:10"
   points="443,510.4 559.4,509.6 605.6,294.6 392.7,294.6 "
   id="polygon886" />
	<polyline
   style="fill:none;stroke:#000000;stroke-miterlimit:10"
   points="391.7,294.6 289,294.6 125.7,300.9  "
   id="polyline888" />
	<polyline
   style="fill:none;stroke:#000000;stroke-miterlimit:10"
   points="607.1,294.2 710.3,294.2 873.6,300.6  "
   id="polyline890" />
	<polyline
   style="fill:none;stroke:#000000;stroke-miterlimit:10"
   points="443,510.4 449.4,670.6 449.4,878.6  "
   id="polyline892" />
	<polyline
   style="fill:none;stroke:#000000;stroke-miterlimit:10"
   points="559.4,509.6 559.4,670.6 559.4,878.6  "
   id="polyline894" />
	<circle
   id="rightEye0"
   cx="468.60001"
   cy="160.2"
   r="0.80000001" />
	<circle
   id="rightBrow1"
   cx="466.39999"
   cy="148.3"
   r="0.80000001" />
	<circle
   id="rightBrow4"
   cx="489.70001"
   cy="151.3"
   r="0.80000001" />
	<circle
   id="nose1"
   cx="497.60001"
   cy="161.2"
   r="0.80000001" />
	<circle
   id="rightBrow3"
   cx="479.89999"
   cy="147.3"
   r="0.80000001" />
	<circle
   id="rightEye1"
   cx="473.79999"
   cy="156.5"
   r="0.80000001" />
	<circle
   id="rightBrow0"
   cx="462.39999"
   cy="152"
   r="0.80000001" />
	<circle
   id="rightBrow2"
   cx="472.60001"
   cy="147.3"
   r="0.80000001" />
	<circle
   id="rightEye5"
   cx="473.79999"
   cy="162.5"
   r="0.80000001" />
	<circle
   id="rightEye2"
   cx="480.10001"
   cy="156.5"
   r="0.80000001" />
	<circle
   id="rightEye3"
   cx="485.29999"
   cy="160.7"
   r="0.80000001" />
	<circle
   id="nose0"
   cx="497.60001"
   cy="155.39999"
   r="0.80000001" />
	<circle
   id="nose3"
   cx="497.60001"
   cy="173.8"
   r="0.80000001" />
	<circle
   id="rightNose0"
   cx="486.89999"
   cy="178.3"
   r="0.80000001" />
	<circle
   id="rightMouthCorner"
   cx="480.89999"
   cy="200.39999"
   r="0.80000001" />
	<circle
   id="rightNose1"
   cx="492.10001"
   cy="178.3"
   r="0.80000001" />
	<circle
   id="rightUpperLipTop0"
   cx="487.79999"
   cy="197"
   r="0.80000001" />
	<circle
   id="nose2"
   cx="497.60001"
   cy="166.7"
   r="0.80000001" />
	<circle
   id="nose4"
   cx="497.60001"
   cy="179.10001"
   r="0.80000001" />
	<circle
   id="upperLipTopMid"
   cx="498.39999"
   cy="196.8"
   r="0.80000001" />
	<circle
   id="rightUpperLipTop1"
   cx="494.29999"
   cy="195.89999"
   r="0.80000001" />
	<path
   id="rightMiddleLip"
   d="m 484.5,199.9 c 0.4,0 0.8,0.4 0.8,0.8 0,0.4 -0.4,0.8 -0.8,0.8 -0.4,0 -0.8,-0.4 -0.8,-0.8 0,-0.4 0.4,-0.8 0.8,-0.8 z" />
	<circle
   id="lowerLipBottomMid"
   cx="498.39999"
   cy="210"
   r="0.80000001" />
	<circle
   id="upperLipBottomMid"
   cx="498.39999"
   cy="200.39999"
   r="0.80000001" />
	<circle
   id="lowerLipTopMid"
   cx="498.39999"
   cy="203.5"
   r="0.80000001" />
	<circle
   id="rightUpperLipBottom1"
   cx="494.5"
   cy="199.89999"
   r="0.80000001" />
	<circle
   id="rightLowerLipTop0"
   cx="494.5"
   cy="202.8"
   r="0.80000001" />
	<circle
   id="rightLowerLipBottom1"
   cx="494.29999"
   cy="209.5"
   r="0.80000001" />
	<circle
   id="rightLowerLipBottom0"
   cx="487.29999"
   cy="206.7"
   r="0.80000001" />
	<circle
   id="rightEye4"
   cx="480.10001"
   cy="161.7"
   r="0.80000001" />
	<circle
   id="jawMid"
   cx="498.39999"
   cy="235.8"
   r="0.80000001" />
	<circle
   id="rightJaw7"
   cx="483.39999"
   cy="232.60001"
   r="0.80000001" />
	<circle
   id="rightJaw6"
   cx="473.39999"
   cy="225.89999"
   r="0.80000001" />
	<circle
   id="rightJaw5"
   cx="461.79999"
   cy="213.39999"
   r="0.80000001" />
	<circle
   id="rightJaw4"
   cx="455"
   cy="193.39999"
   r="0.80000001" />
	<circle
   id="rightJaw3"
   cx="454.20001"
   cy="171.7"
   r="0.80000001" />
	<circle
   id="rightJaw2"
   cx="454.20001"
   cy="162.2"
   r="0.80000001" />
	<circle
   id="rightJaw1"
   cx="455"
   cy="150.5"
   r="0.80000001" />
	<circle
   id="rightJaw0"
   cx="457.5"
   cy="141.2"
   r="0.80000001" />
	<circle
   id="topMid"
   cx="498.60001"
   cy="115.1"
   r="0.80000001" />
	<circle
   id="leftTop0"
   cx="518.29999"
   cy="117.6"
   r="0.80000001" />
	<circle
   id="leftTop1"
   cx="530.90002"
   cy="127.1"
   r="0.80000001" />
	<circle
   id="leftEye0"
   cx="528.20001"
   cy="160.2"
   r="0.80000001" />
	<circle
   id="leftBrow1"
   cx="530.09998"
   cy="148.7"
   r="0.80000001" />
	<circle
   id="leftBrow4"
   cx="506.5"
   cy="150.8"
   r="0.80000001" />
	<circle
   id="leftBrow3"
   cx="516.5"
   cy="147.60001"
   r="0.80000001" />
	<circle
   id="leftEye1"
   cx="523"
   cy="156.5"
   r="0.80000001" />
	<circle
   id="leftBrow0"
   cx="534.09998"
   cy="151.60001"
   r="0.80000001" />
	<circle
   id="leftBrow2"
   cx="523.79999"
   cy="147.2"
   r="0.80000001" />
	<circle
   id="leftEye5"
   cx="523"
   cy="162.5"
   r="0.80000001" />
	<circle
   id="leftEye2"
   cx="516.70001"
   cy="156.5"
   r="0.80000001" />
	<circle
   id="leftEye3"
   cx="511.5"
   cy="160.7"
   r="0.80000001" />
	<circle
   id="leftNose0"
   cx="508"
   cy="178.3"
   r="0.80000001" />
	<circle
   id="leftMouthCorner"
   cx="515.90002"
   cy="200.39999"
   r="0.80000001" />
	<circle
   id="leftNose1"
   cx="503.20001"
   cy="178.3"
   r="0.80000001" />
	<circle
   id="leftUpperLipTop0"
   cx="509"
   cy="197"
   r="0.80000001" />
	<circle
   id="leftUpperLipTop1"
   cx="502.60001"
   cy="195.89999"
   r="0.80000001" />
	<path
   id="leftMiddleLip"
   d="m 512.3,199.9 c 0.4,0 0.8,0.4 0.8,0.8 0,0.4 -0.4,0.8 -0.8,0.8 -0.4,0 -0.8,-0.4 -0.8,-0.8 0,-0.4 0.4,-0.8 0.8,-0.8 z" />
	<circle
   id="leftUpperLipBottom1"
   cx="502.39999"
   cy="199.89999"
   r="0.80000001" />
	<circle
   id="leftLowerLipTop0"
   cx="502.39999"
   cy="202.8"
   r="0.80000001" />
	<circle
   id="leftLowerLipBottom1"
   cx="502.60001"
   cy="209.5"
   r="0.80000001" />
	<circle
   id="leftLowerLipBottom0"
   cx="509.5"
   cy="206.7"
   r="0.80000001" />
	<circle
   id="leftEye4"
   cx="516.70001"
   cy="161.7"
   r="0.80000001" />
	<circle
   id="leftJaw7"
   cx="513.20001"
   cy="233"
   r="0.80000001" />
	<circle
   id="leftJaw6"
   cx="523.20001"
   cy="226.3"
   r="0.80000001" />
	<circle
   id="leftJaw5"
   cx="534.79999"
   cy="213.7"
   r="0.80000001" />
	<circle
   id="leftJaw4"
   cx="541.59998"
   cy="193.7"
   r="0.80000001" />
	<circle
   id="leftJaw3"
   cx="542.40002"
   cy="172.10001"
   r="0.80000001" />
	<circle
   id="leftJaw2"
   cx="542.40002"
   cy="162.5"
   r="0.80000001" />
	<circle
   id="leftJaw1"
   cx="541.59998"
   cy="150.8"
   r="0.80000001" />
	<circle
   id="leftJaw0"
   cx="539.09998"
   cy="141.60001"
   r="0.80000001" />
	<polyline
   style="fill:none;stroke:#000000;stroke-miterlimit:10"
   points="498.4,115.1 478.6,117.6 466.1,127.1 457.5,141.2    455,150.5 454.2,162.2 454.2,171.7 455,193.4 461.8,213.4 473.4,225.9 483.4,232.6 498.4,235.8 513.2,233 523.2,226.3 534.8,213.7    541.6,193.7 542.4,172.1 542.4,162.5 541.6,150.8 539.1,141.6 530.9,127.1 518.3,117.6 498.4,115.1  "
   id="polyline967" />
	<polyline
   style="fill:none;stroke:#000000;stroke-miterlimit:10"
   points="462.4,152 466.4,148.3 472.6,147.3 479.9,147.3    489.7,151.3  "
   id="polyline969" />
	<polygon
   style="fill:none;stroke:#000000;stroke-miterlimit:10"
   points="473.8,162.5 468.6,160.2 473.8,156.5 480.1,156.5 485.3,160.7 480.1,161.7 "
   id="polygon971" />
	<polyline
   style="fill:none;stroke:#000000;stroke-miterlimit:10"
   points="486.9,178.3 492.1,178.3 497.6,179.1 497.6,173.8    497.6,166.7 497.6,161.2 497.6,155.4  "
   id="polyline973" />
	<polyline
   style="fill:none;stroke:#000000;stroke-miterlimit:10"
   points="533.9,151.6 529.9,148.7 523.6,147.2 516.3,147.6    506.3,150.8  "
   id="polyline975" />
	<polygon
   style="fill:none;stroke:#000000;stroke-miterlimit:10"
   points="522.7,162.5 528,160.2 522.7,156.5 516.4,156.5 511.3,160.7 516.4,161.7 "
   id="polygon977" />
	<polyline
   style="fill:none;stroke:#000000;stroke-miterlimit:10"
   points="508,178.3 503,178.3 497.6,179.1  "
   id="polyline979" />
	<polygon
   style="fill:none;stroke:#000000;stroke-miterlimit:10"
   points="509,197 515.9,200.4 509.5,206.7 502.4,209.5 498.4,210 494.3,209.5 487.3,206.7 480.9,200.4 487.8,197 494.3,195.9 498.4,196.8 502.6,195.9 "
   id="polygon981" />
	<polyline
   style="fill:none;stroke:#000000;stroke-miterlimit:10"
   points="480.9,200.4 484.5,200.7 494.5,199.9 498.4,200.4    502.4,199.9 512.3,200.7 515.9,200.4  "
   id="polyline983" />
	<polyline
   style="fill:none;stroke:#000000;stroke-miterlimit:10"
   points="480.9,200.4 484.5,200.7 494.5,202.8 498.4,203.6    502.4,202.8 512.3,200.7 515.9,200.4  "
   id="polyline985" />
	<circle
   id="rightTop0"
   cx="478.70001"
   cy="117.6"
   r="0.80000001" />
	<circle
   id="rightTop1"
   cx="466.10001"
   cy="127.1"
   r="0.80000001" />
</g>
</svg>
